<?xml version="1.0" standalone="no"?><!DOCTYPE svg PUBLIC "-//W3C//DTD SVG 1.1//EN" "http://www.w3.org/Graphics/SVG/1.1/DTD/svg11.dtd"><svg t="1608961287271" class="icon" viewBox="0 0 1024 1024" version="1.1" xmlns="http://www.w3.org/2000/svg" p-id="4097" xmlns:xlink="http://www.w3.org/1999/xlink" width="200" height="200"><defs><style type="text/css"></style></defs><path d="M512 0a512 512 0 1 0 512 512A512 512 0 0 0 512 0zM326.656 298.666667h367.104a25.258667 25.258667 0 1 1 0 50.346666H326.656a25.258667 25.258667 0 1 1 0-50.346666z m388.608 307.2a25.429333 25.429333 0 0 1-35.669333 0L535.381333 460.8v341.333333a25.258667 25.258667 0 0 1-50.346666 0V466.261333l-138.922667 138.922667a25.088 25.088 0 0 1-35.498667-35.669333L494.933333 385.194667a25.258667 25.258667 0 0 1 17.92-7.338667 24.917333 24.917333 0 0 1 17.92 7.338667l184.490667 184.32a25.429333 25.429333 0 0 1 0 35.669333z" fill="#ff8198" p-id="4098" data-spm-anchor-id="a313x.7781069.0.i14" class=""></path><path d="M326.656 349.013333h367.104a25.258667 25.258667 0 1 0 0-50.346666H326.656a25.258667 25.258667 0 1 0 0 50.346666zM530.773333 385.194667a24.917333 24.917333 0 0 0-17.92-7.338667 25.258667 25.258667 0 0 0-17.92 7.338667l-184.32 184.32a25.088 25.088 0 0 0 35.498667 35.669333l138.922667-138.922667V802.133333a25.258667 25.258667 0 0 0 50.346666 0V460.8l144.213334 144.213333a25.429333 25.429333 0 0 0 35.669333 0 25.429333 25.429333 0 0 0 0-35.669333z" fill="#ffffff" p-id="4099" data-spm-anchor-id="a313x.7781069.0.i15" class="selected"></path></svg>