<?xml version="1.0" standalone="no"?><!DOCTYPE svg PUBLIC "-//W3C//DTD SVG 1.1//EN" "http://www.w3.org/Graphics/SVG/1.1/DTD/svg11.dtd"><svg t="1609649956262" class="icon" viewBox="0 0 1024 1024" version="1.1" xmlns="http://www.w3.org/2000/svg" p-id="6032" xmlns:xlink="http://www.w3.org/1999/xlink" width="128" height="128"><defs><style type="text/css"></style></defs><path d="M512 42.666667c259.2 0 469.333333 210.133333 469.333333 469.333333s-210.133333 469.333333-469.333333 469.333333S42.666667 771.2 42.666667 512 252.8 42.666667 512 42.666667z m0 55.466666c-230.9248 0-418.133333 186.2528-418.133333 416S281.0752 930.133333 512 930.133333s418.133333-186.2528 418.133333-416S742.9248 98.133333 512 98.133333z m0 106.666667c169.659733 0 307.2 137.540267 307.2 307.2s-137.540267 307.2-307.2 307.2-307.2-137.540267-307.2-307.2 137.540267-307.2 307.2-307.2z" p-id="6033" fill="#ff8198"></path></svg>