<?xml version="1.0" standalone="no"?><!DOCTYPE svg PUBLIC "-//W3C//DTD SVG 1.1//EN" "http://www.w3.org/Graphics/SVG/1.1/DTD/svg11.dtd"><svg t="1608432041519" class="icon" viewBox="0 0 1024 1024" version="1.1" xmlns="http://www.w3.org/2000/svg" p-id="6417" xmlns:xlink="http://www.w3.org/1999/xlink" width="200" height="200"><defs><style type="text/css"></style></defs><path d="M164.977778 576c22.755556 12.8 51.2 18.488889 82.488889 18.488889 52.622222 0 99.555556-22.755556 133.688889-62.577778 32.711111 38.4 81.066667 61.155556 132.266666 61.155556 51.2 0 99.555556-22.755556 132.266667-62.577778 32.711111 38.4 81.066667 62.577778 133.688889 62.577778 31.288889 0 59.733333-7.111111 83.911111-19.911111 55.466667-31.288889 91.022222-89.6 91.022222-153.6 0-18.488889-2.844444-36.977778-8.533333-54.044445v-1.422222c0-1.422222-1.422222-4.266667-1.422222-5.688889l-73.955556-184.888889c-12.8-38.4-48.355556-62.577778-92.444444-62.577778h-526.222223c-44.088889 0-78.222222 22.755556-89.6 59.733334L82.488889 364.088889c0 1.422222-1.422222 2.844444-1.422222 4.266667-5.688889 17.066667-8.533333 34.133333-8.533334 51.2v5.688888c0 62.577778 35.555556 120.888889 92.444445 150.755556z m85.333333-240.355556h506.311111c14.222222 0 28.444444 9.955556 32.711111 24.177778 5.688889 21.333333-11.377778 39.822222-31.288889 39.822222H251.733333c-14.222222 0-28.444444-9.955556-32.711111-24.177777-4.266667-21.333333 11.377778-39.822222 31.288889-39.822223z" fill="#D81E06" p-id="6418"></path><path d="M870.4 628.622222c-11.377778-9.955556-18.488889-8.533333-25.6-5.688889-24.177778 9.955556-54.044444 14.222222-76.8 12.8-49.777778-2.844444-88.177778-12.8-125.155556-44.088889-35.555556 31.288889-82.488889 48.355556-130.844444 48.355556-49.777778 0-96.711111-12.8-132.266667-44.088889-36.977778 31.288889-83.911111 46.933333-133.688889 46.933333-29.866667 0-46.933333-5.688889-75.377777-15.644444-1.422222 0-1.422222 0-2.844445-1.422222-1.422222 0-2.844444-1.422222-4.266666-1.422222 0 0-4.266667-1.422222-7.111112-1.422223-17.066667 0-31.288889 14.222222-31.288888 31.288889v170.666667c0 44.088889 36.977778 81.066667 81.066666 81.066667h597.333334c44.088889 0 81.066667-36.977778 81.066666-81.066667V664.177778c1.422222-12.8-4.266667-25.6-14.222222-35.555556z" fill="#D81E06" p-id="6419"></path></svg>