<?xml version="1.0" standalone="no"?><!DOCTYPE svg PUBLIC "-//W3C//DTD SVG 1.1//EN" "http://www.w3.org/Graphics/SVG/1.1/DTD/svg11.dtd"><svg t="1609565662717" class="icon" viewBox="0 0 1024 1024" version="1.1" xmlns="http://www.w3.org/2000/svg" p-id="3272" xmlns:xlink="http://www.w3.org/1999/xlink" width="200" height="200"><defs><style type="text/css"></style></defs><path d="M876.8 620.8c-51.2 0-96-25.6-121.6-70.4-25.6 38.4-70.4 70.4-121.6 70.4S537.6 595.2 512 550.4c-25.6 44.8-70.4 70.4-121.6 70.4-51.2 0-96-25.6-121.6-70.4-25.6 44.8-70.4 70.4-121.6 70.4C64 620.8 0 556.8 0 473.6v-6.4l89.6-281.6c0-44.8 38.4-83.2 89.6-83.2h665.6c44.8 0 83.2 38.4 89.6 83.2L1024 467.2v6.4c0 83.2-64 147.2-147.2 147.2z m-96-147.2c0 57.6 44.8 102.4 102.4 102.4 57.6 0 96-44.8 102.4-102.4L889.6 192v-6.4c0-25.6-19.2-44.8-44.8-44.8H179.2c-25.6 0-44.8 19.2-44.8 44.8V192L44.8 473.6c0 57.6 44.8 102.4 102.4 102.4 57.6 0 102.4-44.8 102.4-102.4-6.4-12.8 6.4-25.6 19.2-25.6 12.8 0 19.2 6.4 19.2 19.2 6.4 57.6 38.4 108.8 102.4 108.8 57.6 0 102.4-44.8 102.4-102.4-6.4-12.8 6.4-25.6 19.2-25.6s25.6 12.8 25.6 25.6c0 57.6 44.8 102.4 96 102.4 57.6 0 102.4-44.8 102.4-102.4 0-12.8 12.8-25.6 25.6-25.6s19.2 12.8 19.2 25.6z" p-id="3273"></path><path d="M819.2 1024H204.8c-57.6 0-102.4-57.6-102.4-128V588.8h44.8V896c0 44.8 25.6 83.2 57.6 83.2h614.4c32 0 57.6-38.4 57.6-83.2V588.8h44.8V896c0 70.4-44.8 128-102.4 128z" p-id="3274"></path></svg>